<svg xmlns="http://www.w3.org/2000/svg" xmlns:xlink="http://www.w3.org/1999/xlink" width="565.59" height="108.688" viewBox="0 0 565.59 108.688">
  <defs>
    <linearGradient id="linear-gradient" x1="0.5" x2="0.5" y2="1" gradientUnits="objectBoundingBox">
      <stop offset="0" stop-color="#959595"/>
      <stop offset="1" stop-color="#909090" stop-opacity="0"/>
    </linearGradient>
  </defs>
  <g id="Group_7002" data-name="Group 7002" transform="translate(7357.09 3353.78)">
    <path id="Path_20877" data-name="Path 20877" d="M-2195,9301.593s134.954-47.193,273.813-47.193,281.627,47.193,281.627,47.193" transform="translate(-5156.994 -12604.18)" fill="none" stroke="#424242" stroke-linecap="square" stroke-width="8"/>
    <path id="Path_20878" data-name="Path 20878" d="M-2195,9299.392s136.061-44.992,276.061-44.992S-1635,9299.392-1635,9299.392v58.674h-558.755Z" transform="translate(-5158.014 -12603.158)" opacity="0.286" fill="url(#linear-gradient)"/>
    <path id="Path_35446" data-name="Path 35446" d="M23.416,0a3.966,3.966,0,0,1-1.428-.237,2.642,2.642,0,0,1-1.027-.687l-.2.188a3.139,3.139,0,0,1-.941.54,3.118,3.118,0,0,1-1.088.2,3.842,3.842,0,0,1-1.407-.237,2.658,2.658,0,0,1-1.015-.687l-.2.188a3.139,3.139,0,0,1-.941.54,3.118,3.118,0,0,1-1.088.2,3.305,3.305,0,0,1-1.767-.458V.229a4.2,4.2,0,0,1-1.145,3.215A4.855,4.855,0,0,1,7.748,4.516H5.825a4.819,4.819,0,0,1-2.3-.548A4.369,4.369,0,0,1,1.857,2.405,4.853,4.853,0,0,1,1.223.859,6.516,6.516,0,0,1,1.088-.965a9.615,9.615,0,0,1,.36-2.045A14.1,14.1,0,0,1,2.291-5.22l1.391.679a12.716,12.716,0,0,0-.724,1.825A8.025,8.025,0,0,0,2.626-1.06,5.237,5.237,0,0,0,2.692.389a3.4,3.4,0,0,0,.466,1.19A2.937,2.937,0,0,0,4.271,2.606a3.269,3.269,0,0,0,1.555.364H7.748a4.983,4.983,0,0,0,1.534-.2,2.141,2.141,0,0,0,.925-.556,1.891,1.891,0,0,0,.45-.863A4.912,4.912,0,0,0,10.775.229V-5.523h1.546v1.587a4.223,4.223,0,0,0,.151,1.256,1.805,1.805,0,0,0,.4.724,1.212,1.212,0,0,0,.565.335,2.577,2.577,0,0,0,.65.082,1.746,1.746,0,0,0,.466-.074,1.443,1.443,0,0,0,.491-.25,1.455,1.455,0,0,0,.389-.47,1.532,1.532,0,0,0,.16-.736V-5.523h1.538v2.536a1.473,1.473,0,0,0,.4,1.1,1.767,1.767,0,0,0,1.223.352,1.7,1.7,0,0,0,.462-.074,1.45,1.45,0,0,0,.487-.25,1.412,1.412,0,0,0,.385-.47,1.566,1.566,0,0,0,.155-.736V-5.523H21.78v2.536a1.44,1.44,0,0,0,.4,1.092,1.814,1.814,0,0,0,1.231.348h.565V0ZM17.493-11.168l-1.162,1.137-1.145-1.137,1.178-1.17Zm.4,3.7L16.6-8.779,17.877-10.1,19.2-8.779ZM14.76-7.486,13.467-8.8l1.276-1.325L16.069-8.8Zm14.654.826q.016.049.065.262t.11.528l.135.7q.074.38.131.769t.1.749a5.669,5.669,0,0,1,.041.63,3.26,3.26,0,0,1-.258,1.354,2.8,2.8,0,0,1-.671.941,2.71,2.71,0,0,1-.929.552A3.133,3.133,0,0,1,27.1,0H23.711V-1.546H27.1a2.315,2.315,0,0,0,.348-.037,1.167,1.167,0,0,0,.45-.184,1.255,1.255,0,0,0,.393-.442,1.664,1.664,0,0,0,.168-.818,4.521,4.521,0,0,0-.029-.454q-.029-.274-.074-.589t-.1-.646q-.057-.331-.115-.626t-.106-.524q-.049-.229-.082-.344Zm.605,9.777L28.694,4.443,27.417,3.117,28.71,1.808Zm-3.134.016L25.56,4.459,24.284,3.134l1.293-1.309ZM36.368,0A7.422,7.422,0,0,1,35.03-.119a3.4,3.4,0,0,1-.949-.319,1.842,1.842,0,0,1-.622-.524A2.446,2.446,0,0,1,33.1-1.7a4.322,4.322,0,0,1-.172-.945q-.041-.524-.041-1.162v-7.871h1.546V-3.8q0,.712.045,1.154a1.29,1.29,0,0,0,.237.683.983.983,0,0,0,.581.327,5.549,5.549,0,0,0,1.076.094Zm9.376,0a3.471,3.471,0,0,1-1.1-.172,3.177,3.177,0,0,1-.933-.491,2.213,2.213,0,0,1-.487.552,2.291,2.291,0,0,1-.532.319,2.18,2.18,0,0,1-.511.147,2.923,2.923,0,0,1-.425.037,3.536,3.536,0,0,1-.769-.082A5.046,5.046,0,0,1,40.23.078a8.257,8.257,0,0,1-.806-.372Q39-.515,38.5-.794A2.157,2.157,0,0,1,36.769,0h-.556V-1.546h.556a.649.649,0,0,0,.511-.229,2.065,2.065,0,0,0,.348-.6,7,7,0,0,0,.27-.843q.123-.475.282-.974a8.275,8.275,0,0,1,.38-.974,3.267,3.267,0,0,1,.56-.843,2.636,2.636,0,0,1,.826-.6,2.762,2.762,0,0,1,1.182-.229,3,3,0,0,1,1.4.307,2.891,2.891,0,0,1,.986.822A3.55,3.55,0,0,1,44.1-4.516a5.024,5.024,0,0,1,.192,1.391,1.634,1.634,0,0,0,.192.855,1.436,1.436,0,0,0,.442.475,1.388,1.388,0,0,0,.491.2,2.186,2.186,0,0,0,.331.045h.286V0ZM41.752-1.154q.065,0,.164-.008a.626.626,0,0,0,.217-.065A.888.888,0,0,0,42.37-1.4a1.077,1.077,0,0,0,.213-.335,2.57,2.57,0,0,0,.155-.556,4.764,4.764,0,0,0,.061-.83q0-.09-.016-.286a2.99,2.99,0,0,0-.074-.438,2.945,2.945,0,0,0-.168-.495,1.763,1.763,0,0,0-.3-.466,1.5,1.5,0,0,0-.458-.348,1.451,1.451,0,0,0-.655-.135,1.334,1.334,0,0,0-.61.127,1.238,1.238,0,0,0-.421.348,2.016,2.016,0,0,0-.286.52q-.115.3-.213.646t-.2.728q-.1.38-.229.757.425.213.785.4t.671.323a4.694,4.694,0,0,0,.585.213A1.959,1.959,0,0,0,41.752-1.154ZM50.228-6.66q.016.049.065.262t.11.528l.135.7q.074.38.131.769t.1.749a5.67,5.67,0,0,1,.041.63,3.26,3.26,0,0,1-.258,1.354,2.8,2.8,0,0,1-.671.941,2.71,2.71,0,0,1-.929.552A3.133,3.133,0,0,1,47.913,0H45.826V-1.546h2.086a2.315,2.315,0,0,0,.348-.037,1.167,1.167,0,0,0,.45-.184,1.255,1.255,0,0,0,.393-.442,1.664,1.664,0,0,0,.168-.818,4.52,4.52,0,0,0-.029-.454q-.029-.274-.074-.589t-.1-.646q-.057-.331-.115-.626t-.106-.524Q48.8-6.1,48.764-6.21Zm-2.741-3.379,1.391-1.407L50.3-10.023,48.895-8.615ZM61.544,0A3.929,3.929,0,0,1,60.19-.225a3.355,3.355,0,0,1-1.072-.622,2.818,2.818,0,0,1-.708-.941,2.763,2.763,0,0,1-.254-1.182,4.406,4.406,0,0,1,.217-1.444,4.939,4.939,0,0,1,.552-1.129,6.643,6.643,0,0,1,.736-.92q.4-.417.769-.818l-.507-.565,1.145-1.039q.425.475.88.953t.888.965q.434.487.814.974a8.975,8.975,0,0,1,.667.974,5.378,5.378,0,0,1,.454.974,2.789,2.789,0,0,1,.16.961,3.1,3.1,0,0,1-.266,1.24,3.016,3.016,0,0,1-.749,1.019,3.345,3.345,0,0,1-1.068.61A3.866,3.866,0,0,1,61.544,0Zm-.106-6.177q-.311.352-.622.7a5.694,5.694,0,0,0-.556.732,4.065,4.065,0,0,0-.4.818,2.819,2.819,0,0,0-.155.957,1.21,1.21,0,0,0,.16.634,1.4,1.4,0,0,0,.417.442,1.866,1.866,0,0,0,.589.262,2.679,2.679,0,0,0,.675.086,2.438,2.438,0,0,0,.757-.11,1.7,1.7,0,0,0,.581-.315,1.408,1.408,0,0,0,.372-.487,1.47,1.47,0,0,0,.131-.626,2.011,2.011,0,0,0-.172-.806,4.274,4.274,0,0,0-.446-.781,7.446,7.446,0,0,0-.626-.761Q61.789-5.809,61.437-6.177Zm8.779,6.3q-.417,0-.843-.037a8.116,8.116,0,0,1-.83-.115,5.8,5.8,0,0,1-.777-.2,3.568,3.568,0,0,1-.675-.307l-.679-.385.769-1.35.679.385a2.729,2.729,0,0,0,.7.266,6.22,6.22,0,0,0,.884.147,8.3,8.3,0,0,0,.941.037,7.074,7.074,0,0,0,.875-.065,3.176,3.176,0,0,0,.781-.209.733.733,0,0,0,.389-.307.7.7,0,0,0-.025-.5,3.071,3.071,0,0,0-.368-.712L69.079-7.707l1.309-.851.221.34q.115.176.27.409t.36.548q.2.315.5.757l.687,1.031L73.342-4.1a5.626,5.626,0,0,1,.368.65,3.37,3.37,0,0,1,.245.683,2.579,2.579,0,0,1,.07.691,1.76,1.76,0,0,1-.168.683A2.788,2.788,0,0,1,71.485.033Q71.2.074,70.879.1T70.216.123ZM81.622,0H81.27a3.367,3.367,0,0,1-1.448-.311A6.1,6.1,0,0,1,79.5,1.735,4.1,4.1,0,0,1,78.57,3.26a4,4,0,0,1-1.51.953A5.978,5.978,0,0,1,75,4.541H73.874V2.995H75a4.749,4.749,0,0,0,1.46-.2,2.45,2.45,0,0,0,1.023-.618,2.533,2.533,0,0,0,.6-1.064,5.432,5.432,0,0,0,.192-1.538V-5.531h1.546v2.708a1.175,1.175,0,0,0,.192.716,1.222,1.222,0,0,0,.446.38,1.558,1.558,0,0,0,.487.151,3.149,3.149,0,0,0,.323.029h.352Zm4.467-6.66q.016.049.065.262t.11.528l.135.7q.074.38.131.769t.1.749a5.669,5.669,0,0,1,.041.63,3.26,3.26,0,0,1-.258,1.354,2.8,2.8,0,0,1-.671.941,2.71,2.71,0,0,1-.929.552A3.133,3.133,0,0,1,83.774,0H80.386V-1.546h3.387a2.315,2.315,0,0,0,.348-.037,1.167,1.167,0,0,0,.45-.184,1.255,1.255,0,0,0,.393-.442,1.664,1.664,0,0,0,.168-.818,4.521,4.521,0,0,0-.029-.454q-.029-.274-.074-.589t-.1-.646q-.057-.331-.115-.626t-.106-.524q-.049-.229-.082-.344ZM84.06,6.455l-1.178-1.17,1.145-1.137,1.162,1.137ZM86.9,2.9,85.574,4.222,84.3,2.9,85.59,1.587Zm-3.134.016L82.44,4.238,81.164,2.913,82.456,1.6Z" transform="translate(-7116.569 -3305.178)" fill="#424242"/>
  </g>
</svg>
